<mxfile host="Electron" agent="Mozilla/5.0 (Windows NT 10.0; Win64; x64) AppleWebKit/537.36 (KHTML, like Gecko) draw.io/27.0.9 Chrome/134.0.6998.205 Electron/35.4.0 Safari/537.36" version="27.0.9">
  <diagram name="Page-1" id="mZWKvXX2750u2gbbrLV3">
    <mxGraphModel dx="684" dy="401" grid="1" gridSize="10" guides="1" tooltips="1" connect="1" arrows="1" fold="1" page="1" pageScale="1" pageWidth="850" pageHeight="1100" math="0" shadow="0">
      <root>
        <mxCell id="0" />
        <mxCell id="1" parent="0" />
        <mxCell id="aH_6M-BNbj2o4Ep79qbO-80" value="" style="group" parent="1" vertex="1" connectable="0">
          <mxGeometry x="360" y="130" width="110" height="270" as="geometry" />
        </mxCell>
        <mxCell id="aH_6M-BNbj2o4Ep79qbO-42" value="" style="rounded=0;whiteSpace=wrap;html=1;fillColor=none;strokeColor=#AEAEAE;fontSize=20;" parent="aH_6M-BNbj2o4Ep79qbO-80" vertex="1">
          <mxGeometry x="20" y="30" width="80" height="240" as="geometry" />
        </mxCell>
        <mxCell id="aH_6M-BNbj2o4Ep79qbO-12" value="&lt;span style=&quot;font-size: 12px;&quot;&gt;Silver Layer&lt;/span&gt;" style="rounded=0;whiteSpace=wrap;html=1;fillColor=#f5f5f5;strokeColor=#666666;fontSize=20;fontColor=#030303;fontStyle=1" parent="aH_6M-BNbj2o4Ep79qbO-80" vertex="1">
          <mxGeometry x="20" width="80" height="20" as="geometry" />
        </mxCell>
        <mxCell id="aH_6M-BNbj2o4Ep79qbO-36" value="Cleaned, standardized data" style="text;html=1;align=center;verticalAlign=middle;whiteSpace=wrap;rounded=0;fontSize=7;fontStyle=1" parent="aH_6M-BNbj2o4Ep79qbO-80" vertex="1">
          <mxGeometry x="17.5" y="82.38999999999999" width="80" height="21.74" as="geometry" />
        </mxCell>
        <mxCell id="aH_6M-BNbj2o4Ep79qbO-45" value="" style="html=1;verticalLabelPosition=bottom;align=center;labelBackgroundColor=#ffffff;verticalAlign=top;strokeWidth=2;strokeColor=#666666;shadow=0;dashed=0;shape=mxgraph.ios7.icons.data;fillColor=#f5f5f5;fontColor=#333333;" parent="aH_6M-BNbj2o4Ep79qbO-80" vertex="1">
          <mxGeometry x="48" y="40" width="24" height="31.51" as="geometry" />
        </mxCell>
        <mxCell id="aH_6M-BNbj2o4Ep79qbO-46" value="&lt;b&gt;Object types:&lt;/b&gt; &lt;font style=&quot;font-size: 6px;&quot;&gt;Tables&lt;/font&gt;" style="text;html=1;align=center;verticalAlign=middle;whiteSpace=wrap;rounded=0;fontSize=7;" parent="aH_6M-BNbj2o4Ep79qbO-80" vertex="1">
          <mxGeometry x="20" y="125" width="75" height="10" as="geometry" />
        </mxCell>
        <mxCell id="aH_6M-BNbj2o4Ep79qbO-48" value="&lt;ul&gt;&lt;li&gt;&lt;font&gt;Batch processing&lt;/font&gt;&lt;/li&gt;&lt;li&gt;&lt;font&gt;Full Load&lt;/font&gt;&lt;/li&gt;&lt;li&gt;&lt;font&gt;Truncate &amp;amp; Insert&lt;/font&gt;&lt;/li&gt;&lt;/ul&gt;" style="text;html=1;align=left;verticalAlign=middle;whiteSpace=wrap;rounded=0;fillColor=none;fontSize=6;" parent="aH_6M-BNbj2o4Ep79qbO-80" vertex="1">
          <mxGeometry y="150" width="110" height="5" as="geometry" />
        </mxCell>
        <mxCell id="aH_6M-BNbj2o4Ep79qbO-50" value="Transformations:" style="text;html=1;align=center;verticalAlign=middle;whiteSpace=wrap;rounded=0;fontSize=7;fontStyle=1" parent="aH_6M-BNbj2o4Ep79qbO-80" vertex="1">
          <mxGeometry x="15" y="163.91000000000003" width="80" height="20" as="geometry" />
        </mxCell>
        <mxCell id="aH_6M-BNbj2o4Ep79qbO-51" value="&lt;ul&gt;&lt;li&gt;Data Cleaning&lt;/li&gt;&lt;li&gt;Data Standardization&lt;/li&gt;&lt;li&gt;Data Normilization&lt;/li&gt;&lt;li&gt;Derived Columns&lt;/li&gt;&lt;li&gt;Data Enhancements&lt;/li&gt;&lt;/ul&gt;" style="text;html=1;align=left;verticalAlign=middle;whiteSpace=wrap;rounded=0;fontSize=6;" parent="aH_6M-BNbj2o4Ep79qbO-80" vertex="1">
          <mxGeometry y="183.91000000000003" width="100" height="30" as="geometry" />
        </mxCell>
        <mxCell id="aH_6M-BNbj2o4Ep79qbO-53" value="&lt;font style=&quot;font-size: 7px;&quot;&gt;&lt;b&gt;Data Model:&lt;/b&gt;&lt;/font&gt;&lt;font style=&quot;font-size: 5px;&quot;&gt; &lt;font style=&quot;&quot;&gt;None (as-is)&lt;/font&gt;&lt;/font&gt;" style="text;html=1;align=center;verticalAlign=middle;whiteSpace=wrap;rounded=0;" parent="aH_6M-BNbj2o4Ep79qbO-80" vertex="1">
          <mxGeometry x="25" y="215" width="75" height="30" as="geometry" />
        </mxCell>
        <mxCell id="aH_6M-BNbj2o4Ep79qbO-4" value="" style="rounded=0;whiteSpace=wrap;html=1;fillColor=none;strokeColor=#070707;fontSize=20;dashed=1;" parent="1" vertex="1">
          <mxGeometry x="230" y="110" width="370" height="300" as="geometry" />
        </mxCell>
        <mxCell id="aH_6M-BNbj2o4Ep79qbO-1" value="High Level Architecture" style="text;html=1;align=center;verticalAlign=middle;whiteSpace=wrap;rounded=0;fillColor=#647687;fontStyle=1;fontSize=19;fontColor=#ffffff;strokeColor=#314354;" parent="1" vertex="1">
          <mxGeometry x="285" y="40" width="240" height="30" as="geometry" />
        </mxCell>
        <mxCell id="aH_6M-BNbj2o4Ep79qbO-5" value="Data Warehouse" style="rounded=0;whiteSpace=wrap;html=1;fillColor=default;strokeColor=none;fontSize=24;" parent="1" vertex="1">
          <mxGeometry x="295" y="90" width="230" height="30" as="geometry" />
        </mxCell>
        <mxCell id="aH_6M-BNbj2o4Ep79qbO-6" value="" style="rounded=0;whiteSpace=wrap;html=1;fillColor=none;strokeColor=default;glass=0;dashed=1;" parent="1" vertex="1">
          <mxGeometry x="640" y="110" width="120" height="300" as="geometry" />
        </mxCell>
        <mxCell id="aH_6M-BNbj2o4Ep79qbO-8" value="&lt;font style=&quot;font-size: 12px;&quot;&gt;Bronze Layer&lt;/font&gt;" style="rounded=0;whiteSpace=wrap;html=1;fillColor=#ffe6cc;strokeColor=#d79b00;fontSize=20;fontStyle=1" parent="1" vertex="1">
          <mxGeometry x="250" y="130" width="80" height="20" as="geometry" />
        </mxCell>
        <mxCell id="aH_6M-BNbj2o4Ep79qbO-10" value="" style="rounded=0;whiteSpace=wrap;html=1;fillColor=none;strokeColor=#d79b00;fontSize=20;" parent="1" vertex="1">
          <mxGeometry x="250" y="160" width="80" height="240" as="geometry" />
        </mxCell>
        <mxCell id="aH_6M-BNbj2o4Ep79qbO-31" value="" style="html=1;verticalLabelPosition=bottom;align=center;labelBackgroundColor=#ffffff;verticalAlign=top;strokeWidth=2;strokeColor=#d79b00;shadow=0;dashed=0;shape=mxgraph.ios7.icons.data;fillColor=#ffe6cc;" parent="1" vertex="1">
          <mxGeometry x="278" y="170" width="24" height="31.51" as="geometry" />
        </mxCell>
        <mxCell id="aH_6M-BNbj2o4Ep79qbO-34" value="Raw Data" style="text;html=1;align=center;verticalAlign=middle;whiteSpace=wrap;rounded=0;fontSize=7;fontStyle=1" parent="1" vertex="1">
          <mxGeometry x="260" y="210" width="60" height="20" as="geometry" />
        </mxCell>
        <mxCell id="aH_6M-BNbj2o4Ep79qbO-38" value="" style="endArrow=none;html=1;rounded=0;entryX=-0.012;entryY=0.524;entryDx=0;entryDy=0;entryPerimeter=0;strokeColor=light-dark(#858585, #ededed);exitX=0.98;exitY=0.373;exitDx=0;exitDy=0;exitPerimeter=0;" parent="1" source="aH_6M-BNbj2o4Ep79qbO-10" edge="1">
          <mxGeometry width="50" height="50" relative="1" as="geometry">
            <mxPoint x="326.96000000000004" y="249.62" as="sourcePoint" />
            <mxPoint x="249.99999999999994" y="249.81000000000012" as="targetPoint" />
          </mxGeometry>
        </mxCell>
        <mxCell id="aH_6M-BNbj2o4Ep79qbO-47" value="&lt;font&gt;Load&lt;/font&gt;" style="text;html=1;align=center;verticalAlign=middle;whiteSpace=wrap;rounded=0;fontStyle=1;fontSize=7;" parent="1" vertex="1">
          <mxGeometry x="370" y="265" width="60" height="5" as="geometry" />
        </mxCell>
        <mxCell id="aH_6M-BNbj2o4Ep79qbO-56" value="&lt;b&gt;Object types:&lt;/b&gt; &lt;font style=&quot;font-size: 6px;&quot;&gt;Tables&lt;/font&gt;" style="text;html=1;align=center;verticalAlign=middle;whiteSpace=wrap;rounded=0;fontSize=7;" parent="1" vertex="1">
          <mxGeometry x="255" y="255" width="75" height="10" as="geometry" />
        </mxCell>
        <mxCell id="aH_6M-BNbj2o4Ep79qbO-57" value="&lt;font&gt;Load&lt;/font&gt;" style="text;html=1;align=center;verticalAlign=middle;whiteSpace=wrap;rounded=0;fontStyle=1;fontSize=7;" parent="1" vertex="1">
          <mxGeometry x="240" y="265" width="60" height="5" as="geometry" />
        </mxCell>
        <mxCell id="aH_6M-BNbj2o4Ep79qbO-58" value="&lt;ul&gt;&lt;li&gt;&lt;font&gt;Batch processing&lt;/font&gt;&lt;/li&gt;&lt;li&gt;&lt;font&gt;Full Load&lt;/font&gt;&lt;/li&gt;&lt;li&gt;&lt;font&gt;Truncate &amp;amp; Insert&lt;/font&gt;&lt;/li&gt;&lt;/ul&gt;" style="text;html=1;align=left;verticalAlign=middle;whiteSpace=wrap;rounded=0;fillColor=none;fontSize=6;" parent="1" vertex="1">
          <mxGeometry x="240" y="280" width="110" height="5" as="geometry" />
        </mxCell>
        <mxCell id="aH_6M-BNbj2o4Ep79qbO-59" value="&lt;span style=&quot;font-weight: normal;&quot;&gt;No&lt;/span&gt; Transformations" style="text;html=1;align=center;verticalAlign=middle;whiteSpace=wrap;rounded=0;fontSize=7;fontStyle=1" parent="1" vertex="1">
          <mxGeometry x="255" y="300" width="80" height="20" as="geometry" />
        </mxCell>
        <mxCell id="aH_6M-BNbj2o4Ep79qbO-60" value="&lt;font style=&quot;font-size: 7px;&quot;&gt;&lt;b&gt;Data Model:&lt;/b&gt;&lt;/font&gt;&lt;font style=&quot;font-size: 5px;&quot;&gt; &lt;font style=&quot;&quot;&gt;None (as-is)&lt;/font&gt;&lt;/font&gt;" style="text;html=1;align=center;verticalAlign=middle;whiteSpace=wrap;rounded=0;" parent="1" vertex="1">
          <mxGeometry x="257.5" y="325" width="75" height="30" as="geometry" />
        </mxCell>
        <mxCell id="aH_6M-BNbj2o4Ep79qbO-67" value="" style="verticalLabelPosition=bottom;sketch=0;aspect=fixed;html=1;verticalAlign=top;strokeColor=none;align=center;outlineConnect=0;shape=mxgraph.citrix.reporting;" parent="1" vertex="1">
          <mxGeometry x="682.18" y="130" width="35.65" height="40" as="geometry" />
        </mxCell>
        <mxCell id="aH_6M-BNbj2o4Ep79qbO-68" value="" style="shadow=0;dashed=0;html=1;fillColor=default;labelPosition=center;verticalLabelPosition=bottom;verticalAlign=top;align=center;outlineConnect=0;shape=mxgraph.veeam.reporting;strokeColor=none;gradientColor=#7ea6e0;opacity=90;" parent="1" vertex="1">
          <mxGeometry x="680" y="220" width="50" height="45" as="geometry" />
        </mxCell>
        <mxCell id="aH_6M-BNbj2o4Ep79qbO-69" value="BI &amp;amp; Reporting" style="text;html=1;align=left;verticalAlign=middle;whiteSpace=wrap;rounded=0;fontSize=7;" parent="1" vertex="1">
          <mxGeometry x="682.18" y="170" width="110" height="16" as="geometry" />
        </mxCell>
        <mxCell id="aH_6M-BNbj2o4Ep79qbO-70" value="AD-Hoc&lt;div&gt;SQL Quaries&lt;/div&gt;" style="text;html=1;align=center;verticalAlign=middle;whiteSpace=wrap;rounded=0;fontSize=7;" parent="1" vertex="1">
          <mxGeometry x="667.18" y="274.46000000000004" width="80" height="10" as="geometry" />
        </mxCell>
        <mxCell id="aH_6M-BNbj2o4Ep79qbO-74" value="Machine Learning" style="text;html=1;align=left;verticalAlign=middle;whiteSpace=wrap;rounded=0;fontSize=7;" parent="1" vertex="1">
          <mxGeometry x="680" y="366" width="79.18" height="15" as="geometry" />
        </mxCell>
        <mxCell id="aH_6M-BNbj2o4Ep79qbO-75" value="" style="pointerEvents=1;shadow=0;dashed=0;html=1;strokeColor=#36393d;fillColor=#cce5ff;labelPosition=center;verticalLabelPosition=bottom;verticalAlign=top;align=center;outlineConnect=0;shape=mxgraph.veeam.dr_site;" parent="1" vertex="1">
          <mxGeometry x="680" y="317.6" width="46.98" height="42.4" as="geometry" />
        </mxCell>
        <mxCell id="aH_6M-BNbj2o4Ep79qbO-77" value="" style="group" parent="1" vertex="1" connectable="0">
          <mxGeometry x="90" y="110" width="130" height="300" as="geometry" />
        </mxCell>
        <mxCell id="aH_6M-BNbj2o4Ep79qbO-2" value="" style="rounded=0;whiteSpace=wrap;html=1;fillColor=none;strokeColor=#050505;dashed=1;" parent="aH_6M-BNbj2o4Ep79qbO-77" vertex="1">
          <mxGeometry width="120" height="300" as="geometry" />
        </mxCell>
        <mxCell id="aH_6M-BNbj2o4Ep79qbO-19" value="CRM" style="image;aspect=fixed;html=1;points=[];align=center;fontSize=12;image=img/lib/azure2/general/Folder_Blank.svg;" parent="aH_6M-BNbj2o4Ep79qbO-77" vertex="1">
          <mxGeometry x="38.209999999999994" y="90" width="41.79" height="33.91" as="geometry" />
        </mxCell>
        <mxCell id="aH_6M-BNbj2o4Ep79qbO-17" value="" style="aspect=fixed;html=1;align=center;fontSize=12;image=img/lib/azure2/general/File.svg;shape=image;labelBackgroundColor=default;verticalAlign=top;verticalLabelPosition=bottom;points=[];" parent="aH_6M-BNbj2o4Ep79qbO-77" vertex="1">
          <mxGeometry x="67.5" y="110" width="22.5" height="18.26" as="geometry" />
        </mxCell>
        <mxCell id="aH_6M-BNbj2o4Ep79qbO-20" value="ERP" style="image;aspect=fixed;html=1;points=[];align=center;fontSize=12;image=img/lib/azure2/general/Folder_Blank.svg;" parent="aH_6M-BNbj2o4Ep79qbO-77" vertex="1">
          <mxGeometry x="38.209999999999994" y="150" width="41.79" height="33.91" as="geometry" />
        </mxCell>
        <mxCell id="aH_6M-BNbj2o4Ep79qbO-22" value="" style="aspect=fixed;html=1;align=center;fontSize=12;image=img/lib/azure2/general/File.svg;shape=image;labelBackgroundColor=default;verticalAlign=top;verticalLabelPosition=bottom;points=[];" parent="aH_6M-BNbj2o4Ep79qbO-77" vertex="1">
          <mxGeometry x="65.36" y="170" width="24.64" height="20" as="geometry" />
        </mxCell>
        <mxCell id="aH_6M-BNbj2o4Ep79qbO-26" value="" style="endArrow=none;html=1;rounded=0;" parent="aH_6M-BNbj2o4Ep79qbO-77" edge="1">
          <mxGeometry width="50" height="50" relative="1" as="geometry">
            <mxPoint x="110" y="210" as="sourcePoint" />
            <mxPoint x="10" y="210" as="targetPoint" />
          </mxGeometry>
        </mxCell>
        <mxCell id="aH_6M-BNbj2o4Ep79qbO-27" value="&lt;font style=&quot;font-size: 7px;&quot;&gt;Object Type:&lt;/font&gt; &lt;span style=&quot;font-weight: normal;&quot;&gt;&lt;font style=&quot;font-size: 6px;&quot;&gt;csv/files&lt;/font&gt;&lt;/span&gt;" style="text;html=1;align=left;verticalAlign=middle;whiteSpace=wrap;rounded=0;fontStyle=1;fontSize=10;" parent="aH_6M-BNbj2o4Ep79qbO-77" vertex="1">
          <mxGeometry x="10" y="220" width="120" height="20" as="geometry" />
        </mxCell>
        <mxCell id="aH_6M-BNbj2o4Ep79qbO-29" value="&lt;font style=&quot;font-size: 7px;&quot;&gt;Interface:&lt;/font&gt;&lt;span style=&quot;font-weight: normal;&quot;&gt; &lt;font style=&quot;font-size: 6px;&quot;&gt;Files in Folder&lt;/font&gt;&lt;/span&gt;" style="text;html=1;align=left;verticalAlign=middle;whiteSpace=wrap;rounded=0;fontStyle=1;fontSize=10;" parent="aH_6M-BNbj2o4Ep79qbO-77" vertex="1">
          <mxGeometry x="10" y="240" width="120" height="20" as="geometry" />
        </mxCell>
        <mxCell id="aH_6M-BNbj2o4Ep79qbO-76" value="" style="shape=flexArrow;endArrow=classic;html=1;rounded=0;fillColor=#dae8fc;strokeColor=#6c8ebf;" parent="aH_6M-BNbj2o4Ep79qbO-77" edge="1">
          <mxGeometry width="50" height="50" relative="1" as="geometry">
            <mxPoint x="100" y="150" as="sourcePoint" />
            <mxPoint x="160" y="150" as="targetPoint" />
          </mxGeometry>
        </mxCell>
        <mxCell id="aH_6M-BNbj2o4Ep79qbO-79" value="" style="shape=flexArrow;endArrow=classic;html=1;rounded=0;fillColor=#dae8fc;strokeColor=#6c8ebf;" parent="1" edge="1">
          <mxGeometry width="50" height="50" relative="1" as="geometry">
            <mxPoint x="460" y="259.62" as="sourcePoint" />
            <mxPoint x="500" y="259.62" as="targetPoint" />
          </mxGeometry>
        </mxCell>
        <mxCell id="aH_6M-BNbj2o4Ep79qbO-78" value="" style="shape=flexArrow;endArrow=classic;html=1;rounded=0;fillColor=#dae8fc;strokeColor=#6c8ebf;" parent="1" edge="1">
          <mxGeometry width="50" height="50" relative="1" as="geometry">
            <mxPoint x="330" y="259.62" as="sourcePoint" />
            <mxPoint x="380" y="260" as="targetPoint" />
          </mxGeometry>
        </mxCell>
        <mxCell id="aH_6M-BNbj2o4Ep79qbO-81" value="" style="endArrow=none;html=1;rounded=0;strokeColor=light-dark(#858585, #ededed);" parent="1" edge="1">
          <mxGeometry width="50" height="50" relative="1" as="geometry">
            <mxPoint x="460" y="250" as="sourcePoint" />
            <mxPoint x="380" y="250" as="targetPoint" />
          </mxGeometry>
        </mxCell>
        <mxCell id="aH_6M-BNbj2o4Ep79qbO-83" value="" style="shape=flexArrow;endArrow=classic;html=1;rounded=0;fillColor=#dae8fc;strokeColor=#6c8ebf;" parent="1" edge="1">
          <mxGeometry width="50" height="50" relative="1" as="geometry">
            <mxPoint x="590" y="259.62" as="sourcePoint" />
            <mxPoint x="640" y="259.62" as="targetPoint" />
          </mxGeometry>
        </mxCell>
        <mxCell id="aH_6M-BNbj2o4Ep79qbO-84" value="" style="group" parent="1" vertex="1" connectable="0">
          <mxGeometry x="480" y="130" width="120" height="270" as="geometry" />
        </mxCell>
        <mxCell id="aH_6M-BNbj2o4Ep79qbO-13" value="" style="rounded=0;whiteSpace=wrap;html=1;fillColor=none;strokeColor=#d6b656;fontSize=20;" parent="aH_6M-BNbj2o4Ep79qbO-84" vertex="1">
          <mxGeometry x="20" y="30" width="80" height="240" as="geometry" />
        </mxCell>
        <mxCell id="aH_6M-BNbj2o4Ep79qbO-14" value="&lt;span style=&quot;font-size: 12px;&quot;&gt;Gold Layer&lt;/span&gt;" style="rounded=0;whiteSpace=wrap;html=1;fillColor=#fff2cc;strokeColor=#d6b656;fontSize=20;fontStyle=1" parent="aH_6M-BNbj2o4Ep79qbO-84" vertex="1">
          <mxGeometry x="20" width="80" height="20" as="geometry" />
        </mxCell>
        <mxCell id="aH_6M-BNbj2o4Ep79qbO-35" value="Business Ready Data" style="text;html=1;align=center;verticalAlign=middle;whiteSpace=wrap;rounded=0;fontSize=7;fontStyle=0" parent="aH_6M-BNbj2o4Ep79qbO-84" vertex="1">
          <mxGeometry x="20" y="78.25999999999999" width="80" height="21.74" as="geometry" />
        </mxCell>
        <mxCell id="aH_6M-BNbj2o4Ep79qbO-44" value="" style="html=1;verticalLabelPosition=bottom;align=center;labelBackgroundColor=#ffffff;verticalAlign=top;strokeWidth=2;strokeColor=#d6b656;shadow=0;dashed=0;shape=mxgraph.ios7.icons.data;fillColor=#fff2cc;" parent="aH_6M-BNbj2o4Ep79qbO-84" vertex="1">
          <mxGeometry x="48" y="40" width="24" height="31.51" as="geometry" />
        </mxCell>
        <mxCell id="aH_6M-BNbj2o4Ep79qbO-61" value="&lt;font style=&quot;font-size: 7px;&quot;&gt;&lt;b&gt;Object Type:&lt;/b&gt; Views&lt;/font&gt;" style="text;html=1;align=center;verticalAlign=middle;whiteSpace=wrap;rounded=0;" parent="aH_6M-BNbj2o4Ep79qbO-84" vertex="1">
          <mxGeometry x="10" y="125" width="90" height="15" as="geometry" />
        </mxCell>
        <mxCell id="aH_6M-BNbj2o4Ep79qbO-62" value="&lt;font&gt;&lt;span style=&quot;font-weight: normal;&quot;&gt;No &lt;/span&gt;Load&lt;/font&gt;" style="text;html=1;align=center;verticalAlign=middle;whiteSpace=wrap;rounded=0;fontStyle=1;fontSize=7;" parent="aH_6M-BNbj2o4Ep79qbO-84" vertex="1">
          <mxGeometry x="10" y="144.45999999999998" width="60" height="5.54" as="geometry" />
        </mxCell>
        <mxCell id="aH_6M-BNbj2o4Ep79qbO-63" value="Transformations:" style="text;html=1;align=left;verticalAlign=middle;whiteSpace=wrap;rounded=0;fontSize=7;fontStyle=1" parent="aH_6M-BNbj2o4Ep79qbO-84" vertex="1">
          <mxGeometry x="25" y="155" width="70" height="20" as="geometry" />
        </mxCell>
        <mxCell id="aH_6M-BNbj2o4Ep79qbO-64" value="&lt;ul&gt;&lt;li&gt;&lt;span style=&quot;background-color: transparent; color: light-dark(rgb(0, 0, 0), rgb(255, 255, 255));&quot;&gt;Data Integrations&lt;/span&gt;&lt;/li&gt;&lt;li&gt;&lt;span style=&quot;background-color: transparent; color: light-dark(rgb(0, 0, 0), rgb(255, 255, 255));&quot;&gt;Aggregations&lt;/span&gt;&lt;/li&gt;&lt;li&gt;&lt;span style=&quot;background-color: transparent; color: light-dark(rgb(0, 0, 0), rgb(255, 255, 255));&quot;&gt;Business Logics&lt;/span&gt;&lt;/li&gt;&lt;/ul&gt;" style="text;html=1;align=left;verticalAlign=middle;whiteSpace=wrap;rounded=0;fontSize=6;fontStyle=0" parent="aH_6M-BNbj2o4Ep79qbO-84" vertex="1">
          <mxGeometry y="170" width="120" height="25" as="geometry" />
        </mxCell>
        <mxCell id="aH_6M-BNbj2o4Ep79qbO-65" value="Data Models:" style="text;html=1;align=center;verticalAlign=middle;whiteSpace=wrap;rounded=0;fontSize=7;" parent="aH_6M-BNbj2o4Ep79qbO-84" vertex="1">
          <mxGeometry x="10" y="200" width="70" height="20" as="geometry" />
        </mxCell>
        <mxCell id="aH_6M-BNbj2o4Ep79qbO-66" value="&lt;ul&gt;&lt;li&gt;&lt;font&gt;Star Schema&lt;/font&gt;&lt;/li&gt;&lt;li&gt;&lt;font&gt;Flat Table&lt;/font&gt;&lt;/li&gt;&lt;li&gt;&lt;font&gt;Aggregated Table&lt;/font&gt;&lt;/li&gt;&lt;/ul&gt;" style="text;html=1;align=left;verticalAlign=middle;whiteSpace=wrap;rounded=0;fontSize=6;" parent="aH_6M-BNbj2o4Ep79qbO-84" vertex="1">
          <mxGeometry x="2.5" y="215" width="105" height="30" as="geometry" />
        </mxCell>
        <mxCell id="aH_6M-BNbj2o4Ep79qbO-82" value="" style="endArrow=none;html=1;rounded=0;strokeColor=light-dark(#858585, #ededed);exitX=1.018;exitY=0.373;exitDx=0;exitDy=0;exitPerimeter=0;entryX=0;entryY=0.375;entryDx=0;entryDy=0;entryPerimeter=0;" parent="aH_6M-BNbj2o4Ep79qbO-84" source="aH_6M-BNbj2o4Ep79qbO-13" target="aH_6M-BNbj2o4Ep79qbO-13" edge="1">
          <mxGeometry width="50" height="50" relative="1" as="geometry">
            <mxPoint x="100" y="124.22999999999999" as="sourcePoint" />
            <mxPoint x="30" y="120" as="targetPoint" />
          </mxGeometry>
        </mxCell>
        <mxCell id="aH_6M-BNbj2o4Ep79qbO-3" value="Sources" style="rounded=0;whiteSpace=wrap;html=1;fillColor=default;strokeColor=none;fontSize=24;" parent="1" vertex="1">
          <mxGeometry x="115" y="90" width="80" height="30" as="geometry" />
        </mxCell>
        <mxCell id="aH_6M-BNbj2o4Ep79qbO-7" value="Consumer" style="rounded=0;whiteSpace=wrap;html=1;fillColor=default;strokeColor=none;fontSize=24;align=center;" parent="1" vertex="1">
          <mxGeometry x="660" y="90" width="80" height="30" as="geometry" />
        </mxCell>
        <mxCell id="aH_6M-BNbj2o4Ep79qbO-86" value="" style="sketch=0;outlineConnect=0;fillColor=#647687;strokeColor=#314354;dashed=0;verticalLabelPosition=bottom;verticalAlign=top;align=center;html=1;fontSize=12;fontStyle=0;aspect=fixed;pointerEvents=1;shape=mxgraph.aws4.rds_sql_server_instance;fontColor=#ffffff;" parent="1" vertex="1">
          <mxGeometry x="230" y="80" width="30" height="30" as="geometry" />
        </mxCell>
      </root>
    </mxGraphModel>
  </diagram>
</mxfile>
